<svg width="3000" height="3000" viewBox="0 0 3000 3000" fill="none" xmlns="http://www.w3.org/2000/svg">
<g clip-path="url(#clip0_2_499)">
<path d="M868.58 269.26L858.16 248.86L843.01 256.6L896.37 361.02L911.52 353.28L881.69 294.91C871.27 274.51 880.6 251.4 904.23 239.33L897.32 225.8C878.13 235.6 867.73 252.13 868.59 269.26M811.05 393.73C790.84 405.46 763.39 397.01 750.75 375.23C738.23 353.65 744.51 325.62 764.72 313.89C784.73 302.28 812.19 310.73 824.71 332.31C837.35 354.09 831.06 382.12 811.05 393.73ZM818.68 406.87C847.12 390.36 856.94 352.15 840.21 323.31C823.48 294.47 785.54 284.23 757.1 300.74C728.66 317.25 718.53 355.38 735.26 384.22C752 413.06 790.24 423.38 818.69 406.87H818.68ZM636.96 380.49C623.49 390.11 616.4 406.33 618.11 420.44L583.17 371.53L569.33 381.42L661.5 510.42L675.34 500.53L631.96 439.82C622.47 426.53 627.89 405.65 643.95 394.18C657.98 384.16 675.54 388.06 686.61 403.56L728.67 462.43L742.51 452.54L699.13 391.83C683.7 370.24 657.99 365.47 636.96 380.5V380.49ZM626.28 520.02C626.2 523.71 624.14 528.24 620.22 531.68C615.11 536.17 606.64 535.46 600.95 528.99L551.56 472.75L573.2 453.74L563.17 442.32L541.53 461.33L520.28 437.13L507.5 448.35L528.75 472.55L514.94 484.67L524.97 496.09L538.77 483.97L588.16 540.21C599.68 553.33 616.78 554.93 629.39 543.85C635.36 538.61 639.36 531.48 640.81 523.86L626.27 520.02H626.28ZM476.17 521.6L530.3 572.97C542.14 584.21 540.78 605.75 527.2 620.06C515.33 632.56 497.35 632.07 483.53 618.95L431.05 569.14L419.34 581.48L473.46 632.85C492.71 651.12 518.85 650.92 536.65 632.16C548.05 620.15 551.93 602.88 547.57 589.36L561.23 602.32L572.94 589.98L487.89 509.26L476.18 521.6H476.17ZM375.95 738.26L333.76 659.26L420.49 681.24L375.95 738.26ZM475.7 695.3L487.57 680.11L322.47 638.35L310.6 653.54L391.09 803.62L402.96 788.43L384.71 754.32L438.19 685.86L475.71 695.31L475.7 695.3Z" fill="#010101"/>
<path d="M1267.23 2959.12C1264.28 2961.34 1259.45 2962.52 1254.32 2961.56C1247.63 2960.32 1242.95 2953.22 1244.52 2944.75L1258.19 2871.16L1286.51 2876.42L1289.28 2861.48L1260.96 2856.22L1266.84 2824.55L1250.12 2821.45L1244.24 2853.11L1226.18 2849.76L1223.4 2864.7L1241.46 2868.06L1227.79 2941.65C1224.6 2958.82 1233.92 2973.24 1250.42 2976.31C1258.23 2977.76 1266.3 2976.49 1273.19 2972.93L1267.22 2959.13L1267.23 2959.12ZM1169.12 2833.06C1153.17 2828.64 1136.1 2833.32 1126.21 2843.53L1131.24 2825.38L1114.84 2820.84L1083.52 2933.84L1099.91 2938.38L1119.84 2866.47C1124.2 2850.73 1143.85 2841.82 1162.87 2847.09C1179.48 2851.69 1187.49 2867.8 1182.4 2886.16L1163.08 2955.88L1179.47 2960.42L1199.4 2888.51C1206.49 2862.94 1194.03 2839.95 1169.11 2833.04L1169.12 2833.06ZM1002.58 2893.58C987.21 2887.43 978.61 2874.72 984 2861.24C989.22 2848.18 1006.61 2844.39 1022.83 2850.87C1034.62 2855.58 1045.11 2861.73 1053.92 2868.42L1047.27 2885.06C1036.91 2898.75 1016.91 2899.3 1002.58 2893.58ZM1049.73 2796.4C1039.2 2792.19 1025.05 2789.71 1006.35 2791.27L1007.53 2806.64C1019.45 2805.54 1032.34 2805.08 1043.29 2809.45C1066.88 2818.88 1066.04 2838.08 1060.15 2852.83L1058.55 2856.83C1048.82 2848.79 1037.4 2841.29 1025.61 2836.58C1002.23 2827.24 977.05 2834.02 968.38 2855.72C959.79 2877.2 971.34 2897.21 994.3 2906.38C1008.62 2912.11 1027.53 2911.85 1040.46 2902.12L1033.64 2919.18L1049.43 2925.49L1075.95 2859.15C1086.47 2832.82 1079.43 2808.27 1049.74 2796.4H1049.73ZM938.16 2861.85C934.77 2863.31 929.79 2863.3 925.04 2861.16C918.83 2858.37 915.97 2850.36 919.51 2842.5L950.25 2774.26L976.52 2786.09L982.76 2772.23L956.5 2760.4L969.73 2731.04L954.22 2724.05L940.99 2753.41L924.24 2745.86L918 2759.72L934.75 2767.27L904.01 2835.51C896.84 2851.43 902.47 2867.65 917.77 2874.54C925.01 2877.8 933.16 2878.49 940.69 2876.66L938.17 2861.84L938.16 2861.85ZM838.05 2833.47L853.25 2841.11L924.48 2699.47L909.28 2691.83L838.06 2833.47H838.05ZM851.03 2707.13L813.86 2771.83C805.72 2785.99 784.48 2789.74 767.37 2779.91C752.42 2771.32 748.67 2753.73 758.16 2737.21L794.2 2674.47L779.45 2665.99L742.28 2730.69C729.06 2753.7 735.42 2779.06 757.84 2791.94C772.2 2800.19 789.89 2799.89 802.01 2792.47L792.63 2808.79L807.38 2817.26L865.79 2715.58L851.04 2707.11L851.03 2707.13ZM661.76 2728.36C681.59 2742.35 704.77 2741.76 717.18 2724.16C729.99 2706 717.71 2689.56 705.73 2673.89C691.99 2655.6 686.78 2648.03 692.66 2639.69C699.2 2630.42 711.49 2631.88 722.24 2639.46C730.77 2645.47 738.13 2655.11 743.45 2668.02L757.7 2661.98C752.21 2648.12 742.86 2635.41 731 2627.04C711.91 2613.57 689.87 2614.13 677.58 2631.55C667.91 2645.26 671.97 2658.4 690.43 2681.41C700.79 2694.27 709.56 2705.45 702.24 2715.83C695.83 2724.91 683.12 2724.83 670.52 2715.94C659.95 2708.49 651.9 2696.7 646.58 2681.02L632.16 2686.11C637.12 2703.48 648.41 2718.95 661.76 2728.36ZM646.5 2560.98C633.89 2550.25 616.44 2547.32 603.17 2552.41L615.37 2538.07L602.41 2527.05L526.44 2616.37L539.4 2627.39L587.74 2570.55C598.32 2558.11 619.9 2558.3 634.93 2571.09C648.06 2582.26 648.55 2600.24 636.21 2614.75L589.33 2669.86L602.29 2680.88L650.63 2624.04C667.82 2603.83 666.2 2577.73 646.5 2560.98ZM472.68 2544.81C456.57 2527.89 458.41 2499.22 476.64 2481.86C494.71 2464.66 523.44 2464.25 539.55 2481.17C555.5 2497.93 553.67 2526.6 535.6 2543.8C517.36 2561.16 488.64 2561.57 472.69 2544.81H472.68ZM461.67 2555.29C484.34 2579.11 523.79 2579.77 547.94 2556.78C572.09 2533.79 573.22 2494.52 550.55 2470.69C527.88 2446.87 488.43 2445.89 464.28 2468.88C440.13 2491.87 438.99 2531.46 461.66 2555.29H461.67ZM372.67 2454.5C386.02 2471.41 405.69 2481.32 426.07 2483.72L428.23 2466.7C411.77 2465.25 396.02 2457.74 385.48 2444.39C364.68 2418.04 370.26 2377.52 397.67 2355.88C424.91 2334.38 465.62 2338.36 486.42 2364.71C496.96 2378.06 500.61 2395.12 498.2 2411.48L515.26 2413.33C517.83 2392.8 512.59 2371.51 499.24 2354.6C472.54 2320.78 420.93 2314.7 386.57 2341.83C352.21 2368.95 345.96 2420.7 372.66 2454.52L372.67 2454.5ZM258.52 2258.94C246.84 2238.97 255.25 2215.14 278.55 2201.52C301.85 2187.9 326.54 2192.38 338.22 2212.36C349.78 2232.14 341.57 2255.85 318.27 2269.47C294.97 2283.09 270.08 2278.72 258.53 2258.94H258.52ZM352.94 2207.44C343.44 2191.19 327.86 2182.95 310.08 2183.1L329.08 2172L320.5 2157.31L185.58 2236.16L194.16 2250.85L246.83 2220.06C237.98 2235.48 237.5 2253.1 247 2269.35C262.56 2295.98 296.17 2303.14 327.3 2284.94C358.24 2266.86 368.5 2234.07 352.93 2207.44H352.94ZM197.65 2168.14L204.61 2183.66L311.6 2135.67L304.64 2120.15L197.65 2168.14ZM327.62 2119.29C330.13 2124.88 336.93 2127.3 342.51 2124.79C347.89 2122.38 350.61 2115.69 348.1 2110.1C345.5 2104.3 338.7 2101.89 333.32 2104.3C327.73 2106.81 325.01 2113.49 327.61 2119.29H327.62ZM277.79 2051.74C271.63 2036.38 257.55 2025.65 243.44 2023.98L299.22 2001.6L292.89 1985.81L145.74 2044.83L152.07 2060.62L221.33 2032.84C236.49 2026.76 255.49 2036.98 262.84 2055.29C269.26 2071.29 261.31 2087.43 243.63 2094.52L176.48 2121.46L182.81 2137.25L252.07 2109.47C276.7 2099.59 287.42 2075.74 277.79 2051.74ZM121 1977.88C127.67 2001.21 146.09 2015.29 166.81 2009.37C188.18 2003.26 188.92 1982.76 189.41 1963.04C190.18 1940.17 190.87 1931.01 200.68 1928.21C211.58 1925.09 220.25 1933.94 223.87 1946.58C226.74 1956.61 226.43 1968.73 222.48 1982.13L237.37 1986.36C241.79 1972.12 242.47 1956.36 238.48 1942.4C232.06 1919.94 214.54 1906.55 194.05 1912.41C177.91 1917.02 172.84 1929.8 172.78 1959.3C172.78 1975.81 172.6 1990.02 160.39 1993.51C149.7 1996.57 139.86 1988.53 135.62 1973.7C132.06 1961.27 133.18 1947.03 138.88 1931.49L124.45 1926.41C117.41 1943.05 116.52 1962.18 121.01 1977.88H121ZM187.91 1849.8L210.27 1844.83L206.58 1828.22L92.1099 1853.67L95.7999 1870.28L159.78 1856.05C182.14 1851.08 202.17 1865.91 207.93 1891.81L222.76 1888.51C218.08 1867.48 204.7 1853.26 187.89 1849.79L187.91 1849.8ZM180.54 1758.34C183.31 1781.54 168.58 1795.86 147.9 1800.61L138.54 1722.23C161.44 1722.7 178.06 1737.61 180.54 1758.33V1758.34ZM88.9599 1769.96C86.2199 1746.99 100.97 1729.01 123.42 1723.82L134.8 1819.08C175.56 1814.21 199.74 1791 195.55 1755.87C191.81 1724.56 162.79 1701.53 128.11 1705.67C92.2999 1709.94 70.1899 1740.91 73.8999 1771.99C75.8399 1788.21 85.2699 1807.87 97.5099 1816.68L107.31 1805C98.5699 1798.73 90.6099 1783.7 88.9599 1769.96ZM74.9099 1625.85C73.2099 1603.01 91.2299 1585.29 118.15 1583.3C145.07 1581.3 165.27 1596.17 166.97 1619.02C168.68 1642.09 150.89 1659.79 123.98 1661.79C97.0699 1663.79 76.6299 1648.93 74.9199 1625.86L74.9099 1625.85ZM223.5 1654.39L160.39 1659.08C175.12 1649.12 183.28 1633.5 181.89 1614.72C179.61 1583.96 152.56 1562.77 116.82 1565.42C80.8599 1568.09 57.2399 1593.04 59.5199 1623.8C60.9199 1642.57 71.2999 1656.81 87.3299 1664.49L65.3899 1666.12L66.6499 1683.08L224.76 1671.34L223.5 1654.37V1654.39ZM74.4099 1485.05C74.9599 1468.5 83.9899 1456.09 98.4999 1456.57C112.55 1457.04 122.04 1472.1 121.46 1489.56C121.04 1502.25 118.83 1514.21 115.53 1524.76L97.6199 1524.17C81.2199 1519.09 73.8999 1500.46 74.4099 1485.05ZM181.83 1496.33C182.21 1485 179.72 1470.84 171.89 1453.79L157.83 1460.13C162.92 1470.96 167.74 1482.93 167.35 1494.71C166.51 1520.1 148.16 1525.85 132.3 1525.32L128 1525.18C132.25 1513.29 135.42 1500.01 135.84 1487.31C136.68 1462.15 121.73 1440.77 98.3799 1440C75.2599 1439.23 60.3699 1456.9 59.5599 1481.6C59.0499 1497.01 65.7199 1514.71 79.2699 1523.56L60.9099 1522.95L60.3399 1539.95L131.75 1542.32C160.09 1543.26 180.78 1528.29 181.84 1496.32L181.83 1496.33ZM177.2 1375.32C174.34 1398.5 156.6 1408.89 135.39 1408.55L145.06 1330.21C167.18 1336.14 179.76 1354.6 177.2 1375.32ZM85.4999 1364.69C88.3299 1341.73 106.97 1327.8 130.01 1328.13L118.26 1423.35C159 1428.38 188.04 1411.63 192.37 1376.51C196.23 1345.22 173.57 1315.91 138.9 1311.63C103.11 1307.21 74.2299 1331.98 70.3899 1363.05C68.3899 1379.26 72.8399 1400.6 82.6199 1412.09L94.9299 1403.09C87.9399 1394.92 83.8099 1378.41 85.4999 1364.68V1364.69ZM120.16 1207.16L255.56 1238.76L259.58 1221.53L107.84 1186.12L84.4899 1286.18L100.83 1290L120.16 1207.17V1207.16Z" fill="#010101"/>
<path d="M2784.38 1253.2C2787.98 1269.36 2800.13 1282.22 2813.79 1286.16L2755.12 1299.21L2758.82 1315.82L2913.58 1281.39L2909.88 1264.79L2837.04 1281C2821.1 1284.55 2804 1271.39 2799.71 1252.13C2795.97 1235.3 2806.42 1220.66 2825.02 1216.52L2895.65 1200.81L2891.95 1184.21L2819.11 1200.42C2793.21 1206.18 2778.77 1227.98 2784.39 1253.22M2927.37 1348.9C2925.43 1332.69 2916.9 1318.63 2904.55 1308.92L2894.46 1322C2904.19 1328.83 2910.88 1339 2912.28 1350.7C2915.05 1373.9 2896.42 1395.77 2871.43 1398.76C2846.66 1401.72 2823.4 1384.86 2820.62 1361.66C2819.25 1350.18 2823.16 1338.97 2830.58 1330.32L2817.69 1319.98C2808.42 1332.28 2803.64 1347.7 2805.53 1363.46C2809.43 1396.11 2840.44 1420.5 2873.55 1416.55C2906.66 1412.59 2931.27 1381.55 2927.37 1348.9ZM2925.57 1493.41C2926.05 1509.96 2917.81 1522.91 2903.3 1523.33C2889.24 1523.74 2878.84 1509.3 2878.33 1491.84C2877.96 1479.14 2879.42 1467.07 2882.06 1456.33L2899.97 1455.81C2916.65 1459.86 2925.13 1477.99 2925.58 1493.41H2925.57ZM2817.65 1488.85C2817.98 1500.19 2821.34 1514.16 2830.22 1530.69L2843.85 1523.48C2838.09 1512.98 2832.54 1501.35 2832.19 1489.56C2831.45 1464.17 2849.4 1457.29 2865.27 1456.82L2869.58 1456.69C2866.08 1468.82 2863.75 1482.28 2864.12 1494.97C2864.86 1520.13 2881.11 1540.53 2904.46 1539.85C2927.59 1539.17 2941.34 1520.62 2940.61 1495.91C2940.16 1480.49 2932.39 1463.25 2918.32 1455.27L2936.69 1454.73L2936.19 1437.73L2864.77 1439.82C2836.43 1440.65 2816.71 1456.88 2817.65 1488.85ZM2925.17 1621.18C2924.41 1644.53 2902.69 1663.34 2877.52 1662.51C2852.59 1661.69 2832.14 1641.51 2832.91 1618.16C2833.67 1595.04 2855.39 1576.23 2880.32 1577.05C2905.48 1577.87 2925.93 1598.06 2925.17 1621.18ZM2940.36 1621.68C2941.43 1588.81 2914.23 1560.23 2880.91 1559.14C2847.59 1558.05 2818.8 1584.79 2817.72 1617.66C2816.65 1650.53 2843.62 1679.33 2876.94 1680.42C2910.26 1681.51 2939.29 1654.55 2940.36 1621.68ZM2928.01 1755.58C2930.65 1734.19 2923.87 1713.25 2911.24 1697.06L2897.61 1707.49C2908.15 1720.22 2913.88 1736.7 2911.8 1753.58C2907.68 1786.9 2874.94 1811.42 2840.28 1807.13C2805.84 1802.87 2780.05 1771.12 2784.17 1737.81C2786.26 1720.93 2795.83 1706.34 2809.15 1696.56L2798.47 1683.13C2782.06 1695.73 2770.61 1714.42 2767.96 1735.81C2762.68 1778.58 2794.63 1819.55 2838.08 1824.92C2881.52 1830.29 2922.72 1798.35 2928 1755.59L2928.01 1755.58ZM2762.79 1936.52C2758.36 1952.47 2763.05 1969.54 2773.25 1979.43L2755.11 1974.4L2750.56 1990.79L2863.56 2022.13L2868.11 2005.74L2796.2 1985.8C2780.46 1981.43 2771.55 1961.78 2776.83 1942.77C2781.44 1926.16 2797.54 1918.15 2815.9 1923.24L2885.62 1942.58L2890.17 1926.19L2818.26 1906.25C2792.69 1899.16 2769.7 1911.61 2762.79 1936.53V1936.52ZM2818.1 2099.88C2809.43 2121.58 2782.61 2131.86 2759.23 2122.52C2736.06 2113.26 2723.71 2087.33 2732.38 2065.63C2740.96 2044.15 2767.79 2033.86 2790.96 2043.12C2814.34 2052.46 2826.69 2078.4 2818.11 2099.88H2818.1ZM2832.21 2105.52C2844.41 2074.98 2828.56 2038.85 2797.6 2026.48C2766.64 2014.11 2730.47 2029.46 2718.26 2059.99C2706.06 2090.53 2721.61 2126.79 2752.58 2139.16C2783.54 2151.53 2820.01 2136.06 2832.21 2105.52ZM2785.42 2200.46L2793.06 2185.27L2688.31 2132.58L2680.67 2147.78L2785.42 2200.47V2200.46ZM2665.49 2130.49C2668.24 2125.02 2665.82 2118.22 2660.36 2115.47C2655.09 2112.82 2648.19 2114.93 2645.44 2120.4C2642.59 2126.08 2645 2132.88 2650.27 2135.53C2655.74 2138.28 2662.64 2136.17 2665.5 2130.49H2665.49ZM2756.37 2220.85C2757.48 2224.37 2757 2229.32 2754.4 2233.84C2751.01 2239.74 2742.76 2241.8 2735.29 2237.51L2670.39 2200.23L2684.74 2175.25L2671.56 2167.68L2657.21 2192.66L2629.28 2176.62L2620.81 2191.37L2648.74 2207.41L2639.59 2223.34L2652.77 2230.91L2661.92 2214.98L2726.82 2252.26C2741.96 2260.96 2758.66 2256.95 2767.02 2242.39C2770.97 2235.5 2772.46 2227.46 2771.37 2219.78L2756.38 2220.84L2756.37 2220.85ZM2687.94 2344.04C2679.05 2358.01 2664.95 2364.09 2652.71 2356.29C2640.85 2348.74 2640.35 2330.94 2649.73 2316.21C2656.55 2305.5 2664.54 2296.33 2672.75 2288.92L2687.86 2298.54C2699.39 2311.26 2696.22 2331.02 2687.94 2344.03V2344.04ZM2601.2 2279.67C2595.11 2289.24 2590.04 2302.68 2588.11 2321.35L2603.44 2323.04C2604.57 2311.12 2606.51 2298.37 2612.84 2288.43C2626.48 2267 2645.2 2271.39 2658.59 2279.92L2662.22 2282.23C2652.51 2290.3 2643.03 2300.12 2636.21 2310.84C2622.69 2332.08 2624.68 2358.09 2644.39 2370.63C2663.9 2383.06 2685.7 2375.43 2698.98 2354.57C2707.27 2341.56 2710.52 2322.93 2703.36 2308.42L2718.85 2318.29L2727.99 2303.94L2667.73 2265.57C2643.81 2250.34 2618.38 2252.7 2601.2 2279.68V2279.67ZM2539.23 2367.28C2527.77 2380.75 2525.2 2398.82 2533.69 2412.29C2518 2407.28 2501.61 2411.5 2490.14 2424.97C2480.15 2436.72 2477.79 2451.39 2483.3 2463.82L2470.17 2452.65L2459.14 2465.61L2548.45 2541.6L2559.47 2528.64L2502.64 2480.29C2489.17 2468.83 2488.19 2450.72 2500.24 2436.56C2510.53 2424.47 2527.92 2424.67 2542.43 2437.02L2597.54 2483.91L2608.56 2470.95L2551.73 2422.6C2538.26 2411.14 2537.28 2393.03 2549.33 2378.87C2559.62 2366.78 2577.01 2366.99 2591.52 2379.33L2646.63 2426.21L2657.65 2413.25L2600.82 2364.9C2580.61 2347.7 2555.1 2348.63 2539.22 2367.29L2539.23 2367.28ZM2433.4 2520.87L2417.61 2504.28L2405.29 2516.01L2486.14 2600.94L2498.46 2589.21L2453.27 2541.73C2437.47 2525.14 2439.85 2500.33 2459.07 2482.03L2448.59 2471.02C2432.98 2485.87 2427.71 2504.68 2433.41 2520.86L2433.4 2520.87ZM2411.3 2651.5C2392.96 2665.98 2364.58 2661.51 2348.98 2641.74C2333.52 2622.16 2335.76 2593.52 2354.1 2579.04C2372.26 2564.71 2400.64 2569.17 2416.1 2588.76C2431.7 2608.52 2429.46 2637.16 2411.3 2651.5ZM2420.71 2663.43C2446.52 2643.05 2450.82 2603.83 2430.16 2577.66C2409.5 2551.49 2370.5 2546.74 2344.68 2567.12C2318.86 2587.5 2314.26 2626.68 2334.91 2652.85C2355.57 2679.02 2394.89 2683.81 2420.71 2663.43ZM2256.02 2617.8C2251.02 2610.79 2252.26 2602.37 2257.8 2598.42C2262.05 2595.39 2266.92 2594.42 2270.54 2595.19L2270.13 2580.16C2262.38 2579.84 2254.52 2582.1 2248.06 2586.71C2234.4 2596.46 2232.04 2613.46 2242.19 2627.68L2251.54 2640.79L2236.58 2651.46L2245.41 2663.83L2260.36 2653.16L2319.64 2736.25L2333.49 2726.37L2274.21 2643.28L2297.66 2626.55L2288.84 2614.18L2265.39 2630.91L2256.04 2617.8H2256.02ZM2253.67 2782.73C2274.62 2770.49 2283.7 2749.16 2272.84 2730.56C2261.63 2711.37 2241.58 2715.72 2222.35 2720.13C2200 2725.04 2190.96 2726.65 2185.81 2717.84C2180.09 2708.05 2186.52 2697.46 2197.87 2690.83C2206.88 2685.57 2218.7 2682.87 2232.66 2683.38L2233.07 2667.9C2218.18 2667.14 2202.74 2670.38 2190.2 2677.71C2170.03 2689.49 2161.39 2709.78 2172.14 2728.19C2180.61 2742.68 2194.24 2744.44 2222.84 2737.18C2238.84 2733.09 2252.65 2729.75 2259.05 2740.72C2264.66 2750.32 2259.31 2761.85 2245.99 2769.63C2234.83 2776.15 2220.76 2778.59 2204.28 2776.92L2202.94 2792.16C2220.8 2794.86 2239.56 2790.99 2253.66 2782.75L2253.67 2782.73ZM2093.07 2731.4C2078.3 2738.89 2068.85 2753.85 2068.43 2768.06L2059.91 2751.27L2044.74 2758.96L2097.78 2863.54L2112.95 2855.85L2079.2 2789.3C2071.81 2774.73 2080.32 2754.9 2097.92 2745.98C2113.29 2738.18 2130.07 2744.68 2138.69 2761.67L2171.41 2826.2L2186.58 2818.51L2152.83 2751.96C2140.83 2728.29 2116.13 2719.71 2093.07 2731.4ZM2009.33 2885.72C1993.96 2891.88 1978.96 2888.61 1973.56 2875.13C1968.33 2862.08 1978.3 2847.33 1994.51 2840.83C2006.3 2836.1 2018.13 2833.31 2029.12 2832.08L2035.79 2848.71C2037.74 2865.77 2023.64 2879.97 2009.33 2885.71V2885.72ZM1976.4 2782.85C1965.87 2787.07 1953.92 2795.04 1941.46 2809.08L1952.92 2819.39C1960.79 2810.37 1969.8 2801.14 1980.74 2796.75C2004.32 2787.3 2016.97 2801.78 2022.87 2816.51L2024.47 2820.51C2011.88 2821.4 1998.44 2823.86 1986.65 2828.58C1963.29 2837.95 1949.74 2860.24 1958.43 2881.92C1967.04 2903.39 1989.2 2909.9 2012.15 2900.7C2026.47 2894.96 2039.98 2881.73 2042.62 2865.76L2049.46 2882.81L2065.25 2876.48L2038.66 2810.17C2028.11 2783.85 2006.07 2770.94 1976.39 2782.84L1976.4 2782.85ZM1884.86 2841.2L1878.56 2819.17L1862.2 2823.85L1894.44 2936.59L1910.8 2931.91L1892.78 2868.89C1886.48 2846.86 1900.09 2825.99 1925.6 2818.69L1921.42 2804.08C1900.7 2810.01 1887.31 2824.21 1884.85 2841.19L1884.86 2841.2ZM1798.21 2960.16L1815.48 2956.32L1785.28 2820.6L1836.42 2809.22L1832.77 2792.84L1713.22 2819.44L1716.87 2835.82L1768.01 2824.44L1798.2 2960.16H1798.21Z" fill="#010101"/>
<path d="M204.81 983.28C200.53 975.17 199.75 966.76 202.44 958.07C205.13 949.38 210.48 942.89 218.49 938.67C226.6 934.39 235.01 933.61 243.72 936.33C252.43 939.05 258.93 944.44 263.17 952.48C267.4 960.49 268.16 968.86 265.48 977.55C262.8 986.24 257.4 992.74 249.29 997.02C241.28 1001.25 232.92 1002.05 224.25 999.39C215.56 996.71 209.08 991.35 204.82 983.27" fill="#C7AE2E"/>
<path d="M2755.93 983.28C2751.65 975.17 2750.87 966.76 2753.56 958.07C2756.25 949.38 2761.6 942.9 2769.61 938.67C2777.72 934.39 2786.13 933.61 2794.84 936.32C2803.55 939.04 2810.05 944.43 2814.29 952.47C2818.52 960.48 2819.28 968.85 2816.6 977.54C2813.92 986.23 2808.52 992.73 2800.41 997.01C2792.4 1001.24 2784.04 1002.03 2775.37 999.38C2766.68 996.7 2760.2 991.34 2755.94 983.26" fill="#C7AE2E"/>
<path d="M1475.27 2947.65C1470.99 2939.54 1470.21 2931.13 1472.89 2922.44C1475.58 2913.75 1480.93 2907.27 1488.94 2903.04C1497.05 2898.76 1505.46 2897.98 1514.17 2900.7C1522.88 2903.42 1529.38 2908.81 1533.62 2916.85C1537.85 2924.86 1538.61 2933.23 1535.93 2941.92C1533.24 2950.61 1527.85 2957.11 1519.74 2961.39C1511.73 2965.62 1503.37 2966.42 1494.7 2963.76C1486.01 2961.08 1479.53 2955.72 1475.27 2947.64" fill="#C7AE2E"/>
<path d="M1516.32 212.117C1505.15 211.785 1495.43 208.838 1487.17 203.274C1478.95 197.712 1472.62 190.083 1468.18 180.389C1463.8 170.696 1461.79 159.463 1462.17 146.688C1462.55 133.807 1465.22 122.631 1470.18 113.162C1475.19 103.695 1481.96 96.4282 1490.49 91.3629C1499.07 86.2993 1508.95 83.9331 1520.11 84.2645C1531.27 84.5958 1540.96 87.5426 1549.18 93.1049C1557.45 98.6687 1563.78 106.324 1568.16 116.07C1572.6 125.818 1574.63 137.133 1574.24 150.015C1573.86 162.789 1571.17 173.883 1566.17 183.297C1561.21 192.713 1554.44 199.952 1545.86 205.016C1537.33 210.081 1527.48 212.448 1516.32 212.117ZM1516.82 195.048C1525.3 195.3 1532.34 193.333 1537.95 189.148C1543.55 184.963 1547.77 179.367 1550.61 172.36C1553.46 165.353 1555 157.717 1555.24 149.451C1555.49 141.185 1554.4 133.444 1551.98 126.227C1549.57 119.01 1545.68 113.12 1540.34 108.556C1535 103.992 1528.08 101.585 1519.6 101.333C1511.12 101.081 1504.08 103.075 1498.47 107.314C1492.87 111.552 1488.65 117.202 1485.8 124.263C1482.96 131.323 1481.42 138.987 1481.17 147.252C1480.93 155.518 1482.01 163.233 1484.43 170.396C1486.85 177.559 1490.74 183.395 1496.08 187.905C1501.43 192.416 1508.34 194.797 1516.82 195.048Z" fill="#010101"/>
<path d="M1612.71 211.785L1633.38 48.133L1652.24 50.5154L1644.61 110.926L1646.21 111.128C1647.86 109.172 1650.12 106.697 1652.99 103.704C1655.92 100.664 1659.86 98.1319 1664.83 96.1071C1669.85 94.0357 1676.36 93.5047 1684.35 94.5142C1694.68 95.8198 1703.47 99.5543 1710.7 105.718C1717.93 111.881 1723.16 119.983 1726.38 130.024C1729.61 140.065 1730.4 151.532 1728.77 164.424C1727.13 177.422 1723.5 188.41 1717.87 197.387C1712.25 206.311 1705.2 212.888 1696.71 217.12C1688.22 221.298 1678.87 222.741 1668.64 221.449C1660.75 220.453 1654.61 218.35 1650.19 215.141C1645.79 211.878 1642.52 208.407 1640.39 204.728C1638.26 200.996 1636.65 197.923 1635.55 195.511L1633.31 195.228L1630.93 214.087L1612.71 211.785ZM1639 152.758C1637.83 162.027 1638.15 170.376 1639.97 177.804C1641.8 185.179 1645.07 191.194 1649.79 195.849C1654.51 200.451 1660.66 203.23 1668.22 204.185C1676.11 205.181 1682.95 203.935 1688.75 200.446C1694.61 196.91 1699.31 191.768 1702.87 185.019C1706.49 178.224 1708.85 170.458 1709.96 161.722C1711.05 153.092 1710.7 145.146 1708.91 137.884C1707.18 130.575 1703.91 124.56 1699.09 119.839C1694.34 115.07 1687.96 112.182 1679.97 111.172C1672.3 110.203 1665.61 111.333 1659.9 114.562C1654.19 117.739 1649.57 122.621 1646.03 129.21C1642.5 135.745 1640.16 143.595 1639 152.758Z" fill="#010101"/>
<path d="M1420.91 46.8283L1433.1 211.337L1414.15 212.742L1401.95 48.2338L1420.91 46.8283Z" fill="#010101"/>
<path d="M1788.99 242.384C1781.35 240.611 1774.76 237.564 1769.2 233.242C1763.66 228.868 1759.69 223.51 1757.3 217.168C1754.93 210.774 1754.65 203.654 1756.48 195.808C1758.08 188.904 1760.74 183.623 1764.45 179.965C1768.18 176.256 1772.61 173.7 1777.73 172.298C1782.85 170.896 1788.29 170.231 1794.07 170.303C1799.9 170.335 1805.7 170.634 1811.47 171.201C1819.01 171.96 1825.11 172.632 1829.77 173.217C1834.49 173.763 1838.04 173.677 1840.41 172.96C1842.84 172.255 1844.4 170.411 1845.09 167.43L1845.23 166.802C1847.03 159.061 1846.31 152.555 1843.07 147.282C1839.88 142.022 1834.02 138.402 1825.5 136.423C1816.66 134.37 1809.28 134.697 1803.36 137.402C1797.44 140.106 1792.95 143.419 1789.89 147.339L1773.77 136.982C1778.61 130.388 1784.12 125.658 1790.29 122.793C1796.54 119.887 1802.96 118.346 1809.56 118.17C1816.22 117.953 1822.59 118.549 1828.66 119.958C1832.53 120.856 1836.86 122.359 1841.67 124.466C1846.53 126.533 1850.99 129.526 1855.04 133.443C1859.15 137.372 1862.11 142.552 1863.92 148.982C1865.74 155.411 1865.53 163.412 1863.31 172.984L1844.88 252.382L1826.36 248.084L1830.15 231.765L1829.21 231.546C1827.35 233.87 1824.61 236.182 1820.98 238.484C1817.36 240.785 1812.88 242.417 1807.53 243.38C1802.18 244.343 1796 244.011 1788.99 242.384ZM1795.68 226.407C1803 228.107 1809.5 228.101 1815.19 226.39C1820.93 224.691 1825.61 221.864 1829.23 217.909C1832.91 213.965 1835.32 209.483 1836.49 204.462L1840.42 187.515C1839.42 188.274 1837.5 188.737 1834.65 188.902C1831.86 189.027 1828.67 188.977 1825.09 188.751C1821.57 188.484 1818.14 188.184 1814.8 187.85C1811.52 187.475 1808.86 187.188 1806.81 186.988C1801.85 186.498 1797.12 186.474 1792.61 186.915C1788.16 187.315 1784.33 188.604 1781.13 190.781C1777.98 192.918 1775.87 196.341 1774.77 201.048C1773.28 207.482 1774.53 212.898 1778.52 217.299C1782.58 221.659 1788.3 224.695 1795.68 226.407Z" fill="#010101"/>
<path d="M1346.53 104.689C1344.11 99.522 1341.2 94.9832 1337.8 91.0728C1334.44 87.1025 1330.61 83.8405 1326.29 81.2868C1322.03 78.7266 1317.32 76.9513 1312.16 75.9609C1307.01 74.9706 1301.48 74.8387 1295.56 75.5651C1285.86 76.7561 1277.35 80.3441 1270.02 86.3292C1262.7 92.3143 1257.29 100.471 1253.79 110.801C1250.3 121.13 1249.42 133.383 1251.17 147.561C1252.91 161.738 1256.75 173.412 1262.69 182.583C1268.63 191.754 1275.96 198.347 1284.67 202.362C1293.39 206.378 1302.81 207.764 1312.94 206.52C1322.32 205.368 1330.33 202.355 1336.99 197.481C1343.68 192.547 1348.58 186.157 1351.67 178.311C1354.81 170.406 1355.77 161.443 1354.54 151.423L1360.77 151.956L1311.53 158.003L1309.37 140.414L1371.72 132.758L1373.88 150.346C1375.54 163.83 1374.1 175.909 1369.57 186.583C1365.09 197.25 1358.15 205.946 1348.75 212.673C1339.4 219.339 1328.22 223.471 1315.22 225.068C1300.72 226.848 1287.56 225.001 1275.75 219.527C1263.98 214.046 1254.26 205.393 1246.59 193.567C1238.97 181.735 1234.1 167.185 1231.98 149.916C1230.39 136.965 1230.69 125.107 1232.88 114.342C1235.13 103.517 1239 94.0609 1244.5 85.9738C1250 77.8867 1256.88 71.3612 1265.14 66.3972C1273.4 61.4332 1282.78 58.3067 1293.28 57.0175C1301.92 55.9573 1310.13 56.275 1317.91 57.9704C1325.74 59.6059 1332.87 62.4355 1339.32 66.4592C1345.81 70.423 1351.43 75.4405 1356.18 81.5119C1360.92 87.5299 1364.53 94.418 1367 102.176L1346.53 104.689Z" fill="#010101"/>
<path d="M1943.63 109.2L1899.02 268.006L1880.72 262.866L1925.33 104.059L1943.63 109.2Z" fill="#010101"/>
<path d="M2128.32 225.978C2130.79 218.139 2129.81 210.752 2125.4 203.817C2120.98 196.882 2114.22 191.364 2105.11 187.264C2098.46 184.265 2092.14 182.719 2086.18 182.625C2080.26 182.552 2075.06 183.773 2070.57 186.287C2066.13 188.822 2062.83 192.489 2060.67 197.288C2058.87 201.303 2058.27 205.185 2058.88 208.933C2059.56 212.655 2060.98 216.154 2063.16 219.43C2065.36 222.658 2067.85 225.633 2070.62 228.357C2073.42 231.031 2076.05 233.364 2078.51 235.355L2091.94 246.346C2095.39 249.138 2099.11 252.52 2103.09 256.492C2107.13 260.486 2110.64 265.042 2113.64 270.16C2116.7 275.251 2118.59 280.871 2119.3 287.019C2120 293.167 2118.77 299.766 2115.59 306.817C2111.93 314.945 2106.5 321.331 2099.28 325.974C2092.12 330.639 2083.6 333.076 2073.73 333.284C2063.91 333.515 2053.22 331.028 2041.67 325.825C2030.89 320.975 2022.35 315.037 2016.03 308.011C2009.76 301.008 2005.78 293.382 2004.07 285.136C2002.42 276.911 2003.15 268.554 2006.26 260.063L2025.06 268.529C2023 274.429 2022.79 279.99 2024.44 285.21C2026.17 290.403 2029.19 295.063 2033.52 299.19C2037.92 303.289 2043.1 306.684 2049.07 309.374C2056.03 312.504 2062.78 314.189 2069.32 314.428C2075.89 314.618 2081.71 313.408 2086.77 310.799C2091.85 308.141 2095.63 304.071 2098.1 298.587C2100.35 293.592 2100.78 288.9 2099.4 284.51C2098.02 280.119 2095.5 275.92 2091.82 271.911C2088.15 267.902 2084 263.973 2079.38 260.123L2063.25 246.501C2053.02 237.832 2045.89 228.82 2041.85 219.466C2037.82 210.113 2038.09 200.368 2042.65 190.232C2046.44 181.811 2052.03 175.491 2059.4 171.274C2066.85 167.03 2075.22 164.912 2084.52 164.919C2093.9 164.899 2103.38 167.049 2112.98 171.37C2122.67 175.735 2130.51 181.354 2136.48 188.225C2142.48 195.048 2146.34 202.438 2148.05 210.396C2149.82 218.375 2149.12 226.215 2145.94 233.915L2128.32 225.978Z" fill="#010101"/>
<path d="M2097.44 397.987L2181.98 250.374L2197.92 259.5L2188.15 276.554L2190.11 277.675C2192.39 276.505 2195.42 275.089 2199.22 273.427C2203.09 271.746 2207.71 270.925 2213.07 270.963C2218.51 270.982 2224.72 272.992 2231.71 276.995C2240.75 282.172 2247.42 288.995 2251.73 297.464C2256.03 305.934 2257.75 315.423 2256.86 325.931C2255.98 336.44 2252.31 347.333 2245.85 358.609C2239.34 369.978 2231.77 378.725 2223.12 384.851C2214.5 390.93 2205.46 394.291 2196 394.935C2186.56 395.532 2177.37 393.269 2168.42 388.145C2161.53 384.196 2156.66 379.892 2153.82 375.234C2151.01 370.529 2149.32 366.068 2148.77 361.852C2148.24 357.589 2147.93 354.132 2147.84 351.481L2146.44 350.681L2113.94 407.434L2097.44 397.987ZM2167.45 313.338C2162.81 321.445 2159.9 329.278 2158.73 336.836C2157.58 344.348 2158.29 351.158 2160.86 357.268C2163.45 363.331 2168.05 368.258 2174.67 372.047C2181.57 375.996 2188.36 377.475 2195.06 376.482C2201.82 375.47 2208.15 372.532 2214.03 367.669C2219.98 362.786 2225.14 356.524 2229.52 348.882C2233.84 341.334 2236.57 333.864 2237.71 326.472C2238.93 319.061 2238.22 312.25 2235.58 306.04C2233.03 299.811 2228.25 294.695 2221.26 290.692C2214.55 286.849 2207.94 285.321 2201.43 286.107C2194.94 286.847 2188.8 289.578 2183 294.301C2177.23 298.978 2172.04 305.323 2167.45 313.338Z" fill="#010101"/>
<path d="M2286.37 464.072C2276.63 457.199 2269.75 449.121 2265.72 439.837C2261.76 430.54 2260.62 420.663 2262.28 410.204C2264.02 399.732 2268.54 389.319 2275.85 378.966C2283.15 368.612 2291.48 360.818 2300.83 355.584C2310.25 350.336 2319.92 347.896 2329.85 348.264C2339.85 348.619 2349.41 352.016 2358.54 358.456C2363.8 362.171 2368.38 366.717 2372.28 372.094C2376.17 377.471 2378.83 383.62 2380.26 390.541C2381.71 397.417 2381.42 404.963 2379.37 413.176C2377.31 421.39 2372.96 430.213 2366.31 439.646L2361.66 446.226L2283.75 391.242L2293.22 377.818L2355.34 421.656C2359.37 415.953 2361.82 410.059 2362.69 403.974C2363.61 397.92 2362.9 392.129 2360.56 386.599C2358.26 381.1 2354.31 376.37 2348.69 372.407C2342.51 368.042 2336.07 365.8 2329.38 365.682C2322.77 365.551 2316.54 367.07 2310.69 370.237C2304.84 373.404 2299.95 377.773 2296.02 383.345L2289.71 392.294C2284.32 399.928 2281.07 407.328 2279.96 414.494C2278.92 421.647 2279.79 428.277 2282.58 434.385C2285.4 440.449 2289.94 445.694 2296.22 450.121C2300.3 453.001 2304.38 455.031 2308.48 456.212C2312.65 457.38 2316.76 457.653 2320.82 457.031C2324.9 456.365 2328.84 454.741 2332.63 452.16L2344.66 466.96C2339.49 470.935 2333.68 473.536 2327.23 474.766C2320.81 475.951 2314.09 475.683 2307.09 473.963C2300.12 472.199 2293.22 468.902 2286.37 464.072Z" fill="#010101"/>
<path d="M2379.67 539.448C2373.71 534.35 2369.26 528.602 2366.33 522.203C2363.43 515.764 2362.39 509.18 2363.2 502.452C2364.04 495.684 2367.08 489.24 2372.32 483.12C2376.93 477.735 2381.73 474.278 2386.71 472.748C2391.73 471.178 2396.84 470.953 2402.03 472.073C2407.22 473.194 2412.36 475.118 2417.44 477.846C2422.6 480.568 2427.61 483.512 2432.47 486.676C2438.81 490.831 2443.91 494.243 2447.77 496.913C2451.71 499.578 2454.9 501.14 2457.33 501.598C2459.81 502.091 2462.04 501.175 2464.03 498.85L2464.45 498.36C2469.62 492.323 2471.98 486.217 2471.54 480.044C2471.14 473.905 2467.62 467.99 2460.97 462.298C2454.07 456.398 2447.37 453.281 2440.87 452.947C2434.37 452.614 2428.86 453.48 2424.34 455.545L2414.82 438.918C2422.16 435.301 2429.23 433.648 2436.03 433.958C2442.91 434.261 2449.32 435.858 2455.25 438.749C2461.27 441.633 2466.64 445.101 2471.37 449.151C2474.39 451.735 2477.54 455.07 2480.83 459.156C2484.19 463.237 2486.77 467.95 2488.55 473.295C2490.38 478.676 2490.62 484.637 2489.26 491.179C2487.9 497.72 2484.03 504.724 2477.64 512.19L2424.63 574.117L2410.19 561.757L2421.08 549.029L2420.35 548.4C2417.63 549.602 2414.13 550.388 2409.85 550.758C2405.58 551.128 2400.84 550.505 2395.65 548.89C2390.46 547.274 2385.13 544.127 2379.67 539.448ZM2392.97 528.361C2398.68 533.249 2404.46 536.247 2410.3 537.356C2416.17 538.499 2421.63 538.151 2426.67 536.313C2431.74 534.51 2435.96 531.65 2439.31 527.733L2450.62 514.515C2449.38 514.726 2447.46 514.247 2444.86 513.078C2442.33 511.903 2439.53 510.388 2436.45 508.532C2433.45 506.671 2430.54 504.821 2427.73 502.982C2425 501.138 2422.77 499.654 2421.05 498.531C2416.88 495.809 2412.69 493.601 2408.48 491.909C2404.35 490.212 2400.36 489.589 2396.51 490.04C2392.74 490.485 2389.28 492.544 2386.14 496.215C2381.84 501.233 2380.45 506.616 2381.96 512.363C2383.55 518.105 2387.22 523.438 2392.97 528.361Z" fill="#010101"/>
<path d="M2495.54 582.712L2512.31 566.221L2514.98 569.015L2592.21 570.043L2608.47 587.039L2526.46 585.677L2525.35 584.513L2495.54 582.712ZM2450.69 601.088L2569.9 487.057L2583.04 500.793L2463.84 614.824L2450.69 601.088ZM2505.04 657.894L2515.86 580.656L2534.76 581.303L2521.74 675.355L2505.04 657.894Z" fill="#010101"/>
<path d="M2565.53 733.82C2558.14 724.468 2553.83 714.769 2552.6 704.723C2551.44 694.687 2553.15 684.89 2557.71 675.331C2562.34 665.782 2569.63 657.079 2579.57 649.221C2589.51 641.364 2599.71 636.25 2610.15 633.88C2620.68 631.519 2630.64 631.922 2640.06 635.089C2649.55 638.265 2657.76 644.234 2664.68 652.997C2668.68 658.052 2671.78 663.71 2673.99 669.971C2676.2 676.231 2677.01 682.882 2676.41 689.923C2675.86 696.93 2673.44 704.082 2669.14 711.377C2664.85 718.673 2658.17 725.899 2649.11 733.058L2642.79 738.052L2583.66 663.234L2596.56 653.046L2643.7 712.698C2649.18 708.37 2653.2 703.412 2655.76 697.826C2658.36 692.281 2659.32 686.526 2658.65 680.559C2658 674.635 2655.55 668.977 2651.29 663.584C2646.59 657.644 2641.06 653.67 2634.68 651.662C2628.38 649.662 2621.97 649.351 2615.46 650.73C2608.96 652.109 2603.03 654.912 2597.68 659.14L2589.08 665.932C2581.75 671.726 2576.54 677.9 2573.44 684.456C2570.41 691.022 2569.37 697.628 2570.31 704.275C2571.3 710.889 2574.17 717.208 2578.93 723.232C2582.03 727.15 2585.37 730.256 2588.96 732.55C2592.63 734.853 2596.5 736.28 2600.56 736.833C2604.67 737.352 2608.91 736.912 2613.27 735.512L2620.62 753.116C2614.53 755.461 2608.22 756.308 2601.68 755.657C2595.19 754.973 2588.83 752.814 2582.6 749.179C2576.42 745.512 2570.73 740.392 2565.53 733.82Z" fill="#010101"/>
<path d="M2616.1 800.635L2720.12 733.651L2730.06 749.091L2714.35 759.209L2715.05 760.292C2721.42 758.874 2727.8 759.616 2734.21 762.518C2740.61 765.42 2745.82 769.986 2749.83 776.216C2750.59 777.39 2751.51 778.872 2752.6 780.662C2753.69 782.452 2754.48 783.827 2754.97 784.788L2738.72 795.254C2738.5 794.625 2737.91 793.253 2736.93 791.137C2736.02 789.038 2734.89 786.927 2733.52 784.805C2730.26 779.749 2726.29 775.917 2721.61 773.311C2717.01 770.72 2712.11 769.466 2706.93 769.547C2701.82 769.645 2696.91 771.205 2692.22 774.229L2626.4 816.617L2616.1 800.635Z" fill="#010101"/>
<path d="M1043.45 219.62C1039.17 211.51 1038.39 203.1 1041.07 194.41C1043.76 185.72 1049.11 179.23 1057.12 175.01C1065.23 170.73 1073.64 169.95 1082.35 172.67C1091.06 175.39 1097.56 180.78 1101.8 188.82C1106.03 196.83 1106.79 205.2 1104.11 213.89C1101.43 222.58 1096.03 229.08 1087.92 233.36C1079.91 237.59 1071.55 238.39 1062.88 235.73C1054.19 233.05 1047.71 227.69 1043.45 219.61" fill="#C7AE2E"/>
<path fill-rule="evenodd" clip-rule="evenodd" d="M1499.42 330.8C2155.29 330.8 2686.98 862.49 2686.98 1518.36C2686.98 2174.23 2155.3 2705.92 1499.42 2705.92C843.54 2705.92 311.86 2174.22 311.86 1518.35C311.86 862.48 843.55 330.8 1499.42 330.8Z" fill="#C7AE2E"/>
<path fill-rule="evenodd" clip-rule="evenodd" d="M1475.53 2559.82C1496.56 2559.82 1513.61 2576.87 1513.61 2597.9C1513.61 2618.93 1496.56 2635.98 1475.53 2635.98C1454.5 2635.98 1437.45 2618.93 1437.45 2597.9C1437.45 2576.87 1454.5 2559.82 1475.53 2559.82Z" fill="#C7AE2E"/>
<path d="M1263.87 1620.19C1256.35 1627.61 1249.46 1634.88 1242.08 1641.6C1229.25 1653.28 1216.92 1651.45 1209.03 1635.93C1204.68 1627.37 1202.49 1617.72 1198.98 1607.57C1197.11 1610.55 1195.53 1613.28 1193.74 1615.87C1182.5 1632.13 1171.69 1648.71 1159.76 1664.45C1153.04 1673.32 1149.21 1673.02 1140.29 1666.18C1128.51 1657.15 1126.09 1643.91 1127.53 1630.74C1129.78 1610.13 1134.08 1589.74 1137.49 1569.25C1137.82 1567.27 1138.02 1565.27 1138.5 1561.58C1132.77 1564.75 1128.09 1567.07 1123.69 1569.82C1110.67 1577.96 1097.71 1585.31 1084.33 1571.04C1069.35 1590.62 1054.99 1609.37 1040.08 1628.84C1042.73 1630.28 1044.81 1631.58 1047.02 1632.6C1076.49 1646.2 1090.03 1669.08 1088.78 1701.41C1087.97 1722.21 1080.05 1740.64 1070.02 1757.92C1031.68 1823.98 980.69 1878.19 915.62 1918.69C900.35 1928.2 883.82 1933.11 865.63 1930.31C849.93 1927.89 837.03 1914.99 834.33 1899.29C831.69 1883.93 835.86 1869.71 841.67 1855.82C852.41 1830.17 869.29 1808.35 885.4 1786.07C917.89 1741.13 956.47 1701.42 993.37 1660.26C995.7 1657.66 997.93 1654.97 1001.08 1651.31C961.38 1655.8 924.62 1665.94 888.26 1677.77C872.63 1682.85 857.05 1688.09 841.3 1692.78C830.89 1695.88 829.55 1695.27 820.14 1688.34C819.48 1694.22 818.56 1699.35 818.4 1704.5C817.76 1724.54 817.25 1744.58 816.98 1764.63C816.92 1769.21 817.26 1774.08 818.78 1778.32C822.22 1787.96 819.11 1796.51 815.71 1805.16C814.07 1809.33 811.14 1810.19 807.02 1808.7C796.08 1804.76 791.34 1796.22 791.15 1785.46C790.76 1763.38 790.06 1741.23 791.39 1719.22C795.39 1653.01 799.37 1586.77 805.18 1520.71C809.34 1473.39 816.42 1426.34 822.2 1379.17C822.33 1378.15 822.32 1377.03 822.75 1376.15C825.15 1371.27 827.66 1366.45 830.13 1361.61C835.12 1364.33 840.56 1366.47 845.02 1369.88C854.12 1376.84 854.63 1386.89 853.16 1397.21C849.78 1420.86 845.79 1444.44 842.98 1468.16C836.34 1524.03 830.23 1579.97 823.95 1635.89C823.64 1638.67 823.79 1641.51 823.7 1645.83C826.2 1643.6 827.93 1642.33 829.32 1640.76C885.42 1577.78 941.77 1515.02 997.44 1451.66C1024.94 1420.36 1051.2 1387.94 1072 1351.58C1084.81 1329.18 1095.63 1305.94 1099.55 1280.08C1103.89 1251.5 1092.6 1230.11 1066.23 1218.12C1041.2 1206.74 1014.49 1205.16 987.64 1206.83C912.9 1211.5 845.38 1239.33 779.95 1273.19C690.52 1319.48 611.64 1379.93 542.34 1452.83C505.21 1491.9 470.8 1533.26 447.14 1582.17C440.18 1596.56 436.44 1612.54 431.52 1627.89C429.9 1632.96 431.57 1636.86 437.39 1638.27C448.32 1640.91 459.26 1643.58 470.07 1646.65C472.95 1647.47 475.39 1649.8 478.03 1651.45C476.14 1653.93 474.76 1657.51 472.25 1658.71C459.73 1664.69 446.68 1664.76 434.27 1658.75C412.02 1647.97 400.27 1624.29 403.57 1599.97C407.64 1570.03 421.76 1544.59 438.19 1520.09C491.45 1440.69 559.17 1375.57 636.44 1320.02C706.52 1269.63 781.45 1228.35 863.84 1201.57C903.13 1188.8 943.23 1180.18 984.82 1180.14C1006.57 1180.12 1027.94 1182.96 1048.56 1189.87C1097.61 1206.29 1122.39 1249.28 1112.59 1300.05C1105.87 1334.84 1089.06 1365.06 1070.25 1394.39C1038.34 1444.13 999.98 1488.84 961.56 1533.49C928.01 1572.47 894.16 1611.18 860.45 1650.01C858.46 1652.31 856.52 1654.66 855.26 1658.21C861.73 1656.21 868.23 1654.27 874.67 1652.18C921.34 1637.02 968.8 1626.38 1018.21 1626.14C1021.48 1626.12 1025.73 1624.05 1027.83 1621.52C1041.31 1605.31 1054.27 1588.67 1067.5 1572.26C1073.26 1565.11 1075.93 1557.16 1075.24 1547.95C1074.1 1532.62 1079.48 1519.14 1087.79 1506.71C1093.45 1498.24 1098.62 1498.16 1105.87 1505.39C1114.27 1513.76 1116.97 1522.91 1111.32 1533.97C1109.65 1537.25 1108.94 1541.03 1107.21 1546.34C1117.08 1542.24 1125.19 1538.72 1133.41 1535.5C1153.84 1527.48 1166.93 1537.4 1163.73 1559.35C1161.55 1574.3 1157.3 1588.94 1154.32 1603.79C1152 1615.36 1150.18 1627.04 1148.24 1638.69C1148.01 1640.05 1148.44 1641.52 1148.77 1645.33C1154.04 1639.33 1158.52 1635.18 1161.88 1630.26C1176.95 1608.18 1191.64 1585.84 1206.68 1563.74C1208.52 1561.04 1213.32 1556.96 1213.96 1557.41C1217.49 1559.92 1221.52 1563.22 1222.74 1567.08C1224.11 1571.42 1222.93 1576.66 1222.41 1581.47C1221.01 1594.46 1219.11 1607.41 1217.99 1620.42C1217.67 1624.21 1219.31 1628.16 1220.41 1633.94C1239.93 1620.56 1257.79 1608.6 1265.6 1586.91C1271.61 1570.25 1280.06 1555.13 1292.25 1542.2C1307.61 1525.92 1317.93 1526.47 1331.82 1544.3C1332.76 1545.51 1333.66 1546.74 1336.18 1550.11C1340.52 1544.64 1343.98 1539.23 1348.45 1534.84C1363.83 1519.74 1374.2 1521.01 1386.27 1539.05C1388.67 1542.63 1390.79 1546.39 1393.35 1550.6C1412.39 1512.58 1427.14 1474.1 1434.29 1432.54C1441.28 1391.84 1450.93 1351.59 1459.69 1311.2C1460.93 1305.5 1463.21 1299.85 1466 1294.72C1467.33 1292.28 1470.99 1289.79 1473.61 1289.77C1475.73 1289.75 1479.4 1293.15 1479.75 1295.45C1480.91 1302.91 1482.58 1310.93 1481.01 1318.07C1473.46 1352.41 1464.34 1386.4 1456.94 1420.76C1452.35 1442.06 1448.56 1463.69 1446.7 1485.37C1443.29 1525.04 1441.57 1564.86 1439.18 1604.62C1439.08 1606.3 1439.26 1608 1439.38 1612.05C1445.74 1599.03 1450.78 1587.9 1456.5 1577.15C1465.19 1560.83 1474.17 1544.65 1483.44 1528.65C1485.97 1524.29 1489.6 1520.39 1493.36 1516.96C1501.85 1509.2 1511.57 1511.94 1513.79 1523.38C1515.21 1530.73 1514.25 1538.64 1513.77 1546.26C1512.86 1560.59 1510.89 1574.89 1510.58 1589.23C1510.32 1601.06 1513.67 1602.41 1523.87 1595.99C1538.88 1586.54 1548.37 1572.39 1554.65 1556.45C1563.4 1534.26 1570.81 1511.55 1578.74 1489.04C1579.32 1487.4 1579.38 1485.57 1579.91 1482.49C1566.42 1484.68 1553.66 1486.8 1540.88 1488.8C1525.9 1491.15 1510.94 1493.62 1495.91 1495.61C1487.69 1496.7 1485.02 1494.23 1484.31 1486.46C1483.6 1478.72 1486.01 1475.46 1493.47 1474.6C1520.29 1471.5 1547.09 1468.11 1573.96 1465.67C1582.69 1464.88 1586.62 1461.57 1587.96 1453.08C1591.49 1430.75 1595.57 1408.51 1599.41 1386.23C1599.63 1384.96 1599.43 1383.56 1599.9 1382.42C1601.76 1377.92 1603.81 1373.49 1605.79 1369.04C1610.07 1372.41 1615.51 1375 1618.39 1379.31C1625.1 1389.3 1623.59 1401.06 1622.58 1412.29C1621.21 1427.62 1619.18 1442.89 1617.28 1459.53C1625.83 1459.78 1633.91 1460.28 1641.99 1460.22C1672.07 1459.99 1702.15 1459.42 1732.23 1459.39C1736.47 1459.39 1743.52 1457.68 1743.68 1464.9C1743.84 1472.3 1736.82 1471.47 1732.06 1471.65C1698.9 1472.91 1665.73 1473.87 1632.56 1474.92C1631.79 1474.94 1631.02 1474.96 1630.24 1474.99C1615.33 1475.54 1614.76 1476.11 1613.44 1490.94C1609.36 1536.51 1604.48 1582.03 1601.41 1627.67C1599.34 1658.41 1599.82 1689.33 1599.12 1720.16C1599.02 1724.51 1598.7 1728.84 1598.48 1733.2C1589.47 1732.36 1581.78 1723.35 1581.32 1711.85C1580.59 1693.36 1579.9 1674.82 1580.46 1656.34C1581.89 1609.35 1584.02 1562.37 1585.89 1514.8C1584.84 1517.26 1583.82 1519.57 1582.85 1521.91C1575.32 1540.18 1568.79 1558.95 1559.9 1576.53C1554.45 1587.31 1546.46 1597.36 1537.73 1605.79C1521.6 1621.39 1500 1614.91 1494.27 1593.01C1491.57 1582.69 1491.43 1571.7 1490.28 1560.99C1489.91 1557.57 1490.04 1554.1 1489.94 1550.65L1487.86 1550.16C1486.15 1553.14 1484.09 1555.97 1482.79 1559.11C1471.57 1586.14 1460.47 1613.22 1449.37 1640.3C1448.59 1642.2 1448.18 1644.25 1447.32 1646.1C1444.92 1651.25 1444.51 1659.07 1437.07 1658.92C1429.62 1658.77 1423.48 1653.31 1421.96 1646.39C1419.28 1634.22 1417.22 1621.63 1417.22 1609.21C1417.22 1584.06 1418.78 1558.91 1418.99 1533.47C1411.48 1551.38 1397.71 1566.17 1398.28 1588.06C1399.86 1648.37 1395.87 1708.42 1380.33 1766.99C1370.21 1805.1 1356.93 1842.19 1330.52 1872.78C1317.69 1887.65 1303.44 1901.02 1285.87 1910.27C1260.01 1923.89 1231.65 1918.02 1212.67 1895.87C1201.89 1883.29 1201.6 1868.58 1203.06 1853.57C1205.65 1826.76 1216.49 1802.79 1231.97 1781.35C1261.32 1740.7 1292.13 1701.1 1321.56 1660.51C1341.46 1633.07 1360.21 1604.8 1379.08 1576.64C1383.84 1569.54 1380.45 1546.93 1374.27 1541.1C1372.91 1539.82 1368.51 1539.81 1366.96 1541.04C1360.98 1545.78 1354.7 1550.59 1350.13 1556.59C1334.56 1577.05 1319.75 1598.09 1304.45 1618.76C1300.8 1623.7 1296.48 1628.16 1292.29 1632.68C1287.81 1637.52 1282.76 1637.41 1277.95 1633.29C1273.28 1629.29 1268.93 1624.92 1263.84 1620.15M850.77 1906.21C865.82 1908.25 874.5 1906.81 886.75 1899.83C893.66 1895.89 900.54 1891.81 907.07 1887.28C949.58 1857.72 986.43 1822.02 1019.71 1782.53C1035.65 1763.61 1050.88 1743.93 1060.16 1720.87C1065.34 1707.99 1068.05 1693.92 1070.27 1680.12C1071.91 1669.96 1066.39 1662.15 1056.45 1658.63C1049.23 1656.08 1041.63 1654.58 1034.34 1652.2C1025.57 1649.35 1019.23 1652.07 1013.46 1659.03C977.36 1702.57 940.58 1745.56 905 1789.51C884.26 1815.13 866.84 1843.11 854.88 1874.11C850.97 1884.25 848.3 1894.66 850.77 1906.21ZM1384.31 1603.76C1383.39 1603.57 1382.47 1603.38 1381.54 1603.2C1380.59 1604.37 1379.59 1605.5 1378.71 1606.72C1353.6 1641.52 1328.48 1676.31 1303.43 1711.15C1279.58 1744.32 1255.11 1777.1 1236.84 1813.87C1226.85 1833.98 1221.18 1855.06 1222.74 1877.79C1223.51 1889 1227.42 1893.12 1238.55 1892.55C1251.28 1891.9 1262.52 1886.73 1272.62 1879.44C1296.01 1862.55 1315.7 1842.12 1329.89 1816.78C1352.49 1776.41 1365.47 1732.68 1373.26 1687.43C1378.03 1659.73 1380.7 1631.67 1384.32 1603.77L1384.31 1603.76ZM1320.55 1561.21C1319.31 1560.73 1318.08 1560.25 1316.84 1559.78L1288.66 1603.09C1289.52 1603.74 1290.38 1604.39 1291.24 1605.04C1300.24 1594.44 1309.57 1584.08 1318.02 1573.07C1320.24 1570.17 1319.78 1565.22 1320.55 1561.22V1561.21Z" fill="white"/>
<path d="M2177.97 1188.58C2189.16 1186.66 2199.18 1192.77 2200.87 1204.14C2202.68 1216.26 2203.78 1228.78 2202.85 1240.95C2199.16 1289.64 2194.42 1338.25 2190.36 1386.91C2187.3 1423.54 2184.7 1460.21 2181.87 1496.87C2180.31 1517.09 2178.72 1537.3 2176.99 1559.59C2182.35 1556.24 2186.31 1554.1 2189.9 1551.48C2223.28 1527.07 2252.67 1498.29 2280.19 1467.63C2359.42 1379.35 2423.21 1280.13 2483.82 1178.69C2488.96 1170.09 2494.34 1161.61 2500.06 1153.39C2505.63 1145.38 2510.55 1145.31 2514.98 1153.87C2517.23 1158.21 2518.48 1164.86 2516.79 1169.13C2510.49 1185.07 2505.62 1202.76 2495.1 1215.61C2463.52 1254.15 2440.73 1298.36 2411.94 1338.65C2367.49 1400.86 2323.03 1462.93 2268.67 1517.11C2254.46 1531.27 2239.79 1544.95 2225.35 1558.87C2224.46 1559.73 2223.81 1560.84 2222.72 1562.27C2223.91 1562.88 2224.7 1563.63 2225.51 1563.64C2264.2 1564.51 2299.36 1577.9 2333.66 1594.2C2413.32 1632.07 2486.78 1679.41 2552.4 1738.55C2562.13 1747.32 2571.72 1756.42 2580.1 1766.43C2584.45 1771.62 2586.93 1778.93 2588.55 1785.69C2589.98 1791.65 2586.09 1794.36 2580.21 1792.46C2577.62 1791.62 2574.83 1790.13 2573.11 1788.1C2541.85 1751.34 2504.07 1722.08 2464.97 1694.45C2417.45 1660.88 2367.92 1630.71 2314.87 1606.45C2280.5 1590.73 2244.37 1584.71 2206.98 1584.59C2201.39 1584.57 2195.6 1585.28 2190.27 1586.87C2180.55 1589.77 2173.78 1595.46 2173.14 1606.87C2171.19 1641.52 2168.77 1676.14 2166.78 1710.79C2166.67 1712.64 2168.86 1714.56 2169.76 1716.54C2170.73 1718.69 2172.19 1720.97 2172.16 1723.17C2171.77 1750.99 2165.07 1777.54 2155.5 1803.49C2153.32 1809.4 2150.02 1810.57 2144.26 1808.05C2133.05 1803.14 2126.09 1795.69 2126.97 1782.69C2128.94 1753.71 2130.58 1724.71 2132.95 1695.77C2135.16 1668.88 2138 1642.03 2140.9 1615.2C2141.47 1609.9 2139.28 1607.78 2135.24 1604.97C2129.56 1601.01 2123.69 1596.24 2120.22 1590.44C2115.66 1582.78 2118.45 1576.87 2126.51 1572.75C2131.06 1570.42 2136.26 1569.22 2140.52 1566.5C2143.08 1564.87 2145.81 1561.42 2146.07 1558.57C2151.48 1499.44 2156.65 1440.28 2161.64 1381.1C2166.69 1321.16 2171.46 1261.19 2176.39 1201.23C2176.73 1197.16 2177.4 1193.11 2177.98 1188.56" fill="white"/>
<path d="M2102.36 1269.32C2100.57 1394.16 2084.64 1513.51 2047.98 1629.52C2034.97 1670.71 2017.8 1710.56 1991.93 1745.66C1982.09 1759.01 1970.45 1771.36 1958.13 1782.51C1926.02 1811.53 1883.57 1814.61 1844.55 1791.96C1817.44 1776.22 1801.28 1751.8 1789.85 1723.44C1778.54 1695.38 1775.37 1665.72 1772.13 1636.1C1766.89 1588.31 1770.67 1540.56 1774.5 1492.93C1779.51 1430.67 1787.48 1368.74 1799.54 1307.41C1802.11 1294.33 1805.64 1281.43 1809.08 1268.53C1810.47 1263.31 1812.53 1258.02 1819.01 1257.03C1825.99 1255.97 1831.92 1259.11 1834.4 1264.93C1837.3 1271.74 1839.89 1279.7 1839.2 1286.84C1835.44 1325.95 1831.12 1365.03 1826.08 1404C1815.72 1484.09 1806.48 1564.23 1808.61 1645.2C1809.63 1683.9 1816 1721.23 1835.73 1755.51C1851.91 1783.63 1877.53 1793.33 1907.63 1781.08C1932.01 1771.15 1950.17 1753.27 1965.71 1732.87C2006.22 1679.66 2032.01 1619.61 2045.96 1554.42C2062.16 1478.65 2073.25 1402.14 2075.9 1324.65C2076.7 1301.39 2073.85 1278.04 2073.45 1254.71C2073.15 1237.29 2073.78 1219.83 2074.77 1202.42C2074.98 1198.63 2078 1192.45 2080.59 1191.96C2084.08 1191.3 2088.96 1194.43 2092.27 1197.12C2099.48 1202.97 2100.42 1211.8 2100.83 1220.29C2101.67 1237.74 2101.95 1255.22 2102.36 1269.32Z" fill="white"/>
<path d="M1268.04 1464.94C1266.61 1467.95 1266.21 1470.16 1264.89 1471.36C1251.94 1483.07 1238.73 1494.49 1225.84 1506.26C1220.82 1510.84 1217.23 1509.91 1213.02 1505.18C1203.1 1494.05 1202.27 1488.63 1212.67 1478.12C1221.43 1469.28 1231.37 1461.44 1241.57 1454.27C1247.06 1450.41 1254.52 1449.51 1260.37 1454.4C1263.63 1457.12 1265.56 1461.43 1268.02 1464.93" fill="white"/>
<path d="M2338.95 1658.68C2306.22 1830.02 2222.34 1983.2 2103.81 2101.74C1949.13 2256.42 1735.45 2352.09 1499.42 2352.09C1263.39 2352.09 1049.7 2256.41 895.03 2101.74C740.35 1947.07 644.68 1733.37 644.68 1497.35C644.68 1465.09 646.48 1433.25 649.96 1401.91C658.34 1395.03 666.82 1388.33 675.43 1381.8C680.49 1377.96 685.6 1374.18 690.76 1370.45C684.32 1411.81 680.97 1454.19 680.97 1497.35C680.97 1723.37 772.58 1927.99 920.69 2076.09C1068.79 2224.2 1273.41 2315.81 1499.43 2315.81C1725.45 2315.81 1930.06 2224.2 2078.17 2076.09C2193.97 1960.28 2275.24 1809.92 2305.18 1641.79C2316.52 1647.09 2327.77 1652.74 2338.97 1658.68M2353.92 1476.45C2354.09 1483.39 2354.18 1490.36 2354.18 1497.34C2354.18 1519.33 2353.35 1541.12 2351.72 1562.68L2349.15 1561.45C2338.44 1556.35 2327.56 1551.5 2316.39 1547.12C2316.96 1537.58 2317.38 1527.99 2317.63 1518.36C2330.17 1504.73 2342.22 1490.72 2353.93 1476.44L2353.92 1476.45ZM1499.44 642.6C1735.47 642.6 1949.15 738.27 2103.83 892.95C2222.42 1011.54 2306.32 1164.81 2339.02 1336.26C2329.23 1349.85 2319.24 1363.27 2309.02 1376.49C2282.73 1198.85 2199.38 1039.81 2078.18 918.61C1930.07 770.51 1725.46 678.9 1499.44 678.9C1273.42 678.9 1068.81 770.51 920.7 918.61C836.5 1002.81 770.57 1105.27 729.35 1219.55L728.69 1219.9C712.96 1228.22 697.46 1237.04 682.17 1246.33C723.61 1111.24 797.62 990.39 895.05 892.96C1049.72 738.28 1263.41 642.61 1499.44 642.61V642.6Z" fill="white"/>
</g>
<defs>
<clipPath id="clip0_2_499">
<rect width="3000" height="3000" fill="white"/>
</clipPath>
</defs>
</svg>
